<svg width="24" height="24" viewBox="0 0 24 24" fill="none" xmlns="http://www.w3.org/2000/svg">
<path d="M13.7672 3.17344L13.6696 3.66381L13.6696 3.66381L13.7672 3.17344ZM14.5399 6.56254L14.328 7.01541L14.328 7.01541L14.5399 6.56254ZM8.61839 7.04302L8.33624 6.63024L8.33624 6.63024L8.61839 7.04302ZM11.4432 6.02549L11.4891 6.52339L11.4891 6.52339L11.4432 6.02549ZM12.5 12C12.5 11.7239 12.2761 11.5 12 11.5C11.7239 11.5 11.5 11.7239 11.5 12H12H12.5ZM10.2621 20.7738C10.1853 21.0391 10.3381 21.3163 10.6034 21.3931C10.8686 21.4699 11.1459 21.3171 11.2226 21.0518L10.7424 20.9128L10.2621 20.7738ZM14.5399 17.4375L15.0327 17.5218L15.0327 17.5218L14.5399 17.4375ZM13.2865 20.6889C13.2105 20.9544 13.3641 21.2312 13.6295 21.3072C13.895 21.3833 14.1719 21.2297 14.2479 20.9642L13.7672 20.8266L13.2865 20.6889ZM2.5 12C2.5 12.2761 2.72386 12.5 3 12.5C3.27614 12.5 3.5 12.2761 3.5 12H3H2.5ZM5.07116 7.07523C5.23134 6.8503 5.17885 6.5381 4.95391 6.37791C4.72898 6.21773 4.41678 6.27023 4.2566 6.49516L4.66388 6.7852L5.07116 7.07523ZM6.49516 4.25659C6.27023 4.41678 6.21773 4.72898 6.37792 4.95391C6.5381 5.17885 6.8503 5.23134 7.07523 5.07116L6.7852 4.66388L6.49516 4.25659ZM6.46493 13.523C6.47766 13.2472 6.26436 13.0133 5.98851 13.0005C5.71266 12.9878 5.47873 13.2011 5.466 13.477L5.96547 13.5L6.46493 13.523ZM4.92209 18.0375C4.86948 18.3086 5.04658 18.571 5.31766 18.6236C5.58875 18.6763 5.85116 18.4992 5.90377 18.2281L5.41293 18.1328L4.92209 18.0375ZM5.70481 10.3754C5.63598 10.6428 5.79697 10.9154 6.0644 10.9842C6.33182 11.053 6.60441 10.8921 6.67324 10.6246L6.18903 10.5L5.70481 10.3754ZM15.1416 16.8423C15.1824 16.5692 14.9941 16.3147 14.721 16.2739C14.4479 16.2331 14.1934 16.4215 14.1526 16.6946L14.6471 16.7684L15.1416 16.8423ZM14.4887 12.8539C14.4813 13.1299 14.6991 13.3596 14.9752 13.367C15.2512 13.3743 15.481 13.1565 15.4883 12.8805L14.9885 12.8672L14.4887 12.8539ZM18.4649 13.523C18.4777 13.2472 18.2644 13.0133 17.9885 13.0005C17.7127 12.9878 17.4787 13.2011 17.466 13.477L17.9655 13.5L18.4649 13.523ZM16.6567 19.2716C16.5932 19.5403 16.7595 19.8096 17.0283 19.8731C17.297 19.9366 17.5664 19.7703 17.6299 19.5015L17.1433 19.3865L16.6567 19.2716ZM17.3268 10.6246C17.3956 10.8921 17.6682 11.053 17.9356 10.9842C18.203 10.9154 18.364 10.6428 18.2952 10.3754L17.811 10.5L17.3268 10.6246ZM17.0966 4.5811L17.3814 4.17012L17.3801 4.16923L17.0966 4.5811ZM16.8585 5.02443C17.0855 5.18171 17.397 5.12521 17.5542 4.89824C17.7115 4.67126 17.655 4.35976 17.428 4.20248L17.1433 4.61346L16.8585 5.02443ZM19.6543 6.37213C19.4906 6.14977 19.1776 6.10226 18.9552 6.26601C18.7328 6.42976 18.6853 6.74275 18.8491 6.96511L19.2517 6.66862L19.6543 6.37213ZM20.5 12C20.5 12.2761 20.7239 12.5 21 12.5C21.2761 12.5 21.5 12.2761 21.5 12H21H20.5ZM7.49403 19.9281C7.42474 20.1954 7.58526 20.4682 7.85256 20.5375C8.11987 20.6068 8.39274 20.4463 8.46204 20.179L7.97803 20.0535L7.49403 19.9281ZM11.8612 15L12.3591 15.0463L11.8612 15ZM11.4384 18L10.9472 17.9068L11.4384 18ZM9 12H9.5C9.5 10.6193 10.6193 9.5 12 9.5V9V8.5C10.067 8.5 8.5 10.067 8.5 12H9ZM12 9V9.5C13.3807 9.5 14.5 10.6193 14.5 12H15H15.5C15.5 10.067 13.933 8.5 12 8.5V9ZM12 3V3.5C12.5719 3.5 13.1301 3.55641 13.6696 3.66381L13.7672 3.17344L13.8648 2.68306C13.2614 2.56293 12.6378 2.5 12 2.5V3ZM12 6V6.5C12.8331 6.5 13.6216 6.68489 14.328 7.01541L14.5399 6.56254L14.7518 6.10966C13.9155 5.71835 12.9826 5.5 12 5.5V6ZM8.61839 7.04302L8.90053 7.45581C9.65104 6.94283 10.5346 6.61121 11.4891 6.52339L11.4432 6.02549L11.3974 5.52759C10.2687 5.63145 9.22325 6.02395 8.33624 6.63024L8.61839 7.04302ZM11.4432 6.02549L11.4891 6.52339C11.6572 6.50792 11.8276 6.5 12 6.5V6V5.5C11.797 5.5 11.596 5.50933 11.3974 5.52759L11.4432 6.02549ZM14.5399 17.4375L14.0471 17.3531C13.853 18.4869 13.5983 19.6 13.2865 20.6889L13.7672 20.8266L14.2479 20.9642C14.5697 19.8404 14.8325 18.6918 15.0327 17.5218L14.5399 17.4375ZM3 12H3.5C3.5 10.1636 4.08179 8.46457 5.07116 7.07523L4.66388 6.7852L4.2566 6.49516C3.15059 8.04828 2.5 9.94891 2.5 12H3ZM6.7852 4.66388L7.07523 5.07116C8.46457 4.08179 10.1636 3.5 12 3.5V3V2.5C9.94891 2.5 8.04829 3.15058 6.49516 4.25659L6.7852 4.66388ZM5.96547 13.5L5.466 13.477C5.39436 15.0293 5.2104 16.5521 4.92209 18.0375L5.41293 18.1328L5.90377 18.2281C6.20129 16.6952 6.39105 15.1242 6.46493 13.523L5.96547 13.5ZM6.18903 10.5L6.67324 10.6246C7.00957 9.31789 7.815 8.19778 8.90053 7.45581L8.61839 7.04302L8.33624 6.63024C7.05524 7.50581 6.10294 8.82851 5.70481 10.3754L6.18903 10.5ZM14.6471 16.7684L14.1526 16.6946C14.1197 16.9148 14.0845 17.1344 14.0471 17.3531L14.5399 17.4375L15.0327 17.5218C15.0714 17.2961 15.1077 17.0696 15.1416 16.8423L14.6471 16.7684ZM15 12H14.5C14.5 12.2855 14.4962 12.5702 14.4887 12.8539L14.9885 12.8672L15.4883 12.8805C15.4961 12.5879 15.5 12.2944 15.5 12H15ZM17.9655 13.5L17.466 13.477C17.3744 15.4623 17.099 17.3993 16.6567 19.2716L17.1433 19.3865L17.6299 19.5015C18.0864 17.5693 18.3704 15.5708 18.4649 13.523L17.9655 13.5ZM14.5399 6.56254L14.328 7.01541C15.7988 7.70363 16.9147 9.02386 17.3268 10.6246L17.811 10.5L18.2952 10.3754C17.8076 8.48111 16.489 6.92252 14.7518 6.10966L14.5399 6.56254ZM13.7672 3.17344L13.6696 3.66381C14.8174 3.89234 15.882 4.35214 16.8131 4.99297L17.0966 4.5811L17.3801 4.16923C16.3396 3.45313 15.149 2.93873 13.8648 2.68306L13.7672 3.17344ZM17.0966 4.5811L16.8118 4.99207L16.8585 5.02443L17.1433 4.61346L17.428 4.20248L17.3814 4.17013L17.0966 4.5811ZM19.2517 6.66862L18.8491 6.96511C19.8869 8.37438 20.5 10.1149 20.5 12H21H21.5C21.5 9.89435 20.8144 7.94738 19.6543 6.37213L19.2517 6.66862ZM9 12H8.5C8.5 14.6723 8.16434 17.3424 7.49403 19.9281L7.97803 20.0535L8.46204 20.179C9.15389 17.5102 9.5 14.7558 9.5 12H9ZM12 12H11.5C11.5 12.9962 11.4538 13.9814 11.3634 14.9537L11.8612 15L12.3591 15.0463C12.4523 14.0433 12.5 13.0271 12.5 12H12ZM11.8612 15L11.3634 14.9537C11.2705 15.9524 11.131 16.9375 10.9472 17.9068L11.4384 18L11.9297 18.0932C12.1194 17.0929 12.2633 16.0766 12.3591 15.0463L11.8612 15ZM11.4384 18L10.9472 17.9068C10.7627 18.8791 10.5336 19.8355 10.2621 20.7738L10.7424 20.9128L11.2226 21.0518C11.5029 20.0834 11.7393 19.0965 11.9297 18.0932L11.4384 18Z" fill="black"/>
</svg>
